<svg width="28" height="28" viewBox="0 0 28 28" fill="none" xmlns="http://www.w3.org/2000/svg">
<mask id="path-1-inside-1" fill="white">
<path d="M19 4H9C6.23858 4 4 6.23858 4 9V19C4 21.7614 6.23858 24 9 24H19C21.7614 24 24 21.7614 24 19V9C24 6.23858 21.7614 4 19 4Z"/>
<path d="M18 13.37C18.1234 14.2022 17.9813 15.0522 17.5938 15.799C17.2063 16.5458 16.5931 17.1514 15.8416 17.5297C15.0901 17.9079 14.2384 18.0396 13.4078 17.9059C12.5771 17.7723 11.8098 17.3801 11.2148 16.7852C10.6199 16.1902 10.2277 15.4229 10.0941 14.5922C9.9604 13.7616 10.0921 12.9099 10.4703 12.1584C10.8486 11.4069 11.4542 10.7937 12.201 10.4062C12.9478 10.0187 13.7978 9.87659 14.63 10C15.4789 10.1259 16.2649 10.5215 16.8717 11.1283C17.4785 11.7351 17.8741 12.5211 18 13.37Z"/>
<path d="M21 8C21 8.55228 20.5523 9 20 9C19.4477 9 19 8.55228 19 8C19 7.44772 19.4477 7 20 7C20.5523 7 21 7.44772 21 8Z"/>
</mask>
<path d="M18 13.37L17.0108 13.5167L18 13.37ZM14.63 10L14.4833 10.9892L14.63 10ZM9 5H19V3H9V5ZM19 5C21.2091 5 23 6.79086 23 9H25C25 5.68629 22.3137 3 19 3V5ZM23 9V19H25V9H23ZM23 19C23 21.2091 21.2091 23 19 23V25C22.3137 25 25 22.3137 25 19H23ZM19 23H9V25H19V23ZM9 23C6.79086 23 5 21.2091 5 19H3C3 22.3137 5.68629 25 9 25V23ZM5 19V9H3V19H5ZM5 9C5 6.79086 6.79086 5 9 5V3C5.68629 3 3 5.68629 3 9H5ZM17.0108 13.5167C17.1034 14.1409 16.9968 14.7783 16.7061 15.3384L18.4814 16.2596C18.9658 15.3261 19.1434 14.2636 18.9892 13.2233L17.0108 13.5167ZM16.7061 15.3384C16.4155 15.8985 15.9557 16.3527 15.392 16.6364L16.2912 18.4229C17.2306 17.9501 17.997 17.1931 18.4814 16.2596L16.7061 15.3384ZM15.392 16.6364C14.8284 16.9201 14.1897 17.0189 13.5667 16.9186L13.2489 18.8932C14.2872 19.0603 15.3518 18.8957 16.2912 18.4229L15.392 16.6364ZM13.5667 16.9186C12.9437 16.8184 12.3681 16.5242 11.9219 16.0781L10.5077 17.4923C11.2514 18.2359 12.2106 18.7262 13.2489 18.8932L13.5667 16.9186ZM11.9219 16.0781C11.4758 15.6319 11.1816 15.0563 11.0814 14.4333L9.10677 14.7511C9.27385 15.7894 9.76408 16.7486 10.5077 17.4923L11.9219 16.0781ZM11.0814 14.4333C10.9811 13.8103 11.0799 13.1716 11.3636 12.608L9.57709 11.7088C9.10427 12.6482 8.93969 13.7128 9.10677 14.7511L11.0814 14.4333ZM11.3636 12.608C11.6473 12.0443 12.1015 11.5845 12.6616 11.2939L11.7404 9.51862C10.8069 10.003 10.0499 10.7694 9.57709 11.7088L11.3636 12.608ZM12.6616 11.2939C13.2217 11.0032 13.8591 10.8966 14.4833 10.9892L14.7767 9.01082C13.7364 8.85655 12.6739 9.03424 11.7404 9.51862L12.6616 11.2939ZM14.4833 10.9892C15.12 11.0836 15.7095 11.3803 16.1646 11.8354L17.5788 10.4212C16.8202 9.66265 15.8378 9.16817 14.7767 9.01082L14.4833 10.9892ZM16.1646 11.8354C16.6197 12.2905 16.9164 12.88 17.0108 13.5167L18.9892 13.2233C18.8318 12.1622 18.3374 11.1798 17.5788 10.4212L16.1646 11.8354ZM20 8V10C21.1046 10 22 9.10457 22 8H20ZM20 8H18C18 9.10457 18.8954 10 20 10V8ZM20 8V6C18.8954 6 18 6.89543 18 8H20ZM20 8H22C22 6.89543 21.1046 6 20 6V8Z" fill="#6A3C34" mask="url(#path-1-inside-1)"/>
</svg>
