<svg width="32" height="32" viewBox="0 0 32 32" fill="none" xmlns="http://www.w3.org/2000/svg">
<path d="M26.2858 13.7143C26.2858 21.7143 16.0001 28.5714 16.0001 28.5714C16.0001 28.5714 5.71436 21.7143 5.71436 13.7143C5.71436 10.9863 6.79803 8.37012 8.72697 6.44117C10.6559 4.51223 13.2721 3.42856 16.0001 3.42856C18.728 3.42856 21.3442 4.51223 23.2732 6.44117C25.2021 8.37012 26.2858 10.9863 26.2858 13.7143Z" stroke="#6A3C34" stroke-linecap="round" stroke-linejoin="round"/>
<path d="M16.0001 17.1428C17.8936 17.1428 19.4286 15.6078 19.4286 13.7143C19.4286 11.8207 17.8936 10.2857 16.0001 10.2857C14.1065 10.2857 12.5715 11.8207 12.5715 13.7143C12.5715 15.6078 14.1065 17.1428 16.0001 17.1428Z" stroke="#6A3C34" stroke-linecap="round" stroke-linejoin="round"/>
</svg>
