<svg width="28" height="27" viewBox="0 0 28 27" fill="none" xmlns="http://www.w3.org/2000/svg">
<mask id="path-1-inside-1" fill="white">
<path d="M12.0939 22.5578L4.61208 15.3451C4.41804 15.1582 4.26411 14.9364 4.15908 14.6921C4.05406 14.4479 4 14.1861 4 13.9217C4 13.6573 4.05406 13.3955 4.15908 13.1512C4.26411 12.907 4.41804 12.6851 4.61208 12.4983L12.984 4.41805C13.3568 4.05821 13.8547 3.85712 14.3729 3.85712L22 3.85712C23.1046 3.85712 24 4.75255 24 5.85712L24 13.0667C24 13.6098 23.7791 14.1296 23.3881 14.5066L15.0365 22.5578C14.6455 22.9325 14.1165 23.1428 13.5652 23.1428C13.0138 23.1428 12.4849 22.9325 12.0939 22.5578Z"/>
<path d="M19 9.64283C18.4477 9.64283 18 9.21111 18 8.67855C18 8.14599 18.4477 7.71426 19 7.71426C19.5523 7.71426 20 8.14599 20 8.67855C20 9.21111 19.5523 9.64283 19 9.64283Z"/>
</mask>
<path d="M12.0939 22.5578L4.61208 15.3451C4.41804 15.1582 4.26411 14.9364 4.15908 14.6921C4.05406 14.4479 4 14.1861 4 13.9217C4 13.6573 4.05406 13.3955 4.15908 13.1512C4.26411 12.907 4.41804 12.6851 4.61208 12.4983L12.984 4.41805C13.3568 4.05821 13.8547 3.85712 14.3729 3.85712L22 3.85712C23.1046 3.85712 24 4.75255 24 5.85712L24 13.0667C24 13.6098 23.7791 14.1296 23.3881 14.5066L15.0365 22.5578C14.6455 22.9325 14.1165 23.1428 13.5652 23.1428C13.0138 23.1428 12.4849 22.9325 12.0939 22.5578Z" fill="#FFBE55"/>
<path d="M19 9.64283C18.4477 9.64283 18 9.21111 18 8.67855C18 8.14599 18.4477 7.71426 19 7.71426C19.5523 7.71426 20 8.14599 20 8.67855C20 9.21111 19.5523 9.64283 19 9.64283Z" fill="#FFBE55"/>
<path d="M12.0939 22.5578L11.3998 23.2777L11.402 23.2798L12.0939 22.5578ZM4.61208 15.3451L5.30612 14.6252L5.30572 14.6248L4.61208 15.3451ZM4.61208 12.4983L5.30572 13.2186L5.30654 13.2178L4.61208 12.4983ZM15.0365 22.5578L15.7284 23.2798L15.7305 23.2777L15.0365 22.5578ZM23.3881 14.5066L22.694 13.7866L23.3881 14.5066ZM12.984 4.41805L12.2895 3.69852L12.984 4.41805ZM12.7879 21.8379L5.30612 14.6252L3.91804 16.065L11.3998 23.2777L12.7879 21.8379ZM5.30572 14.6248C5.2063 14.529 5.12946 14.4173 5.07775 14.2971L3.24042 15.0871C3.39875 15.4554 3.62978 15.7875 3.91844 16.0654L5.30572 14.6248ZM5.07775 14.2971C5.02608 14.1769 5 14.0495 5 13.9217L3 13.9217C3 14.3227 3.08204 14.7188 3.24042 15.0871L5.07775 14.2971ZM5 13.9217C5 13.7939 5.02608 13.6664 5.07775 13.5463L3.24042 12.7562C3.08204 13.1245 3 13.5207 3 13.9217L5 13.9217ZM5.07775 13.5463C5.12946 13.426 5.2063 13.3143 5.30572 13.2186L3.91844 11.7779C3.62978 12.0559 3.39875 12.388 3.24042 12.7562L5.07775 13.5463ZM5.30654 13.2178L13.6784 5.13759L12.2895 3.69852L3.91762 11.7787L5.30654 13.2178ZM14.3729 4.85712L22 4.85712L22 2.85712L14.3729 2.85712L14.3729 4.85712ZM23 5.85712L23 13.0667L25 13.0667L25 5.85712L23 5.85712ZM22.694 13.7866L14.3424 21.8379L15.7305 23.2777L24.0821 15.2265L22.694 13.7866ZM14.3446 21.8358C14.1434 22.0285 13.8638 22.1428 13.5652 22.1428L13.5652 24.1428C14.3692 24.1428 15.1475 23.8365 15.7284 23.2798L14.3446 21.8358ZM13.5652 22.1428C13.2665 22.1428 12.9869 22.0285 12.7858 21.8358L11.402 23.2798C11.9828 23.8365 12.7612 24.1428 13.5652 24.1428L13.5652 22.1428ZM19 8.64283C18.993 8.64283 18.9896 8.64161 18.9884 8.64111C18.9866 8.64037 18.9862 8.63978 18.987 8.64055C18.9879 8.64135 18.9911 8.64477 18.9944 8.6522C18.998 8.66042 19 8.67012 19 8.67855L17 8.67855C17 9.79736 17.93 10.6428 19 10.6428L19 8.64283ZM19 8.67855C19 8.68697 18.998 8.69667 18.9944 8.70489C18.9911 8.71232 18.9879 8.71574 18.987 8.71654C18.9862 8.71731 18.9866 8.71672 18.9884 8.71598C18.9896 8.71548 18.993 8.71426 19 8.71426L19 6.71426C17.93 6.71426 17 7.55973 17 8.67855L19 8.67855ZM19 8.71426C19.007 8.71426 19.0104 8.71548 19.0116 8.71598C19.0134 8.71672 19.0138 8.71731 19.013 8.71654C19.0121 8.71574 19.0089 8.71232 19.0056 8.70489C19.002 8.69667 19 8.68697 19 8.67855L21 8.67855C21 7.55973 20.07 6.71426 19 6.71426L19 8.71426ZM19 8.67855C19 8.67012 19.002 8.66042 19.0056 8.6522C19.0089 8.64477 19.0121 8.64135 19.013 8.64055C19.0138 8.63978 19.0134 8.64037 19.0116 8.64111C19.0104 8.64161 19.007 8.64283 19 8.64283L19 10.6428C20.07 10.6428 21 9.79736 21 8.67855L19 8.67855ZM23 13.0667C23 13.3383 22.8896 13.5981 22.694 13.7866L24.0821 15.2265C24.6687 14.6611 25 13.8814 25 13.0667L23 13.0667ZM22 4.85712C22.5523 4.85712 23 5.30483 23 5.85712L25 5.85712C25 4.20026 23.6569 2.85712 22 2.85712L22 4.85712ZM13.6784 5.13759C13.8649 4.95767 14.1138 4.85712 14.3729 4.85712L14.3729 2.85712C13.5957 2.85712 12.8488 3.15876 12.2895 3.69852L13.6784 5.13759Z" fill="#FFBE55" mask="url(#path-1-inside-1)"/>
<circle cx="18.5" cy="8.5" r="1.5" fill="white"/>
</svg>
